<?xml version="1.0" encoding="utf-8"?>
<!-- Generator: Adobe Illustrator 15.1.0, SVG Export Plug-In . SVG Version: 6.00 Build 0)  -->
<!DOCTYPE svg PUBLIC "-//W3C//DTD SVG 1.0//EN" "http://www.w3.org/TR/2001/REC-SVG-20010904/DTD/svg10.dtd">
<svg version="1.0" id="Calque_1" xmlns="http://www.w3.org/2000/svg" xmlns:xlink="http://www.w3.org/1999/xlink" x="0px" y="0px"
	 width="21.082px" height="19.763px" viewBox="0 0 21.082 19.763" enable-background="new 0 0 21.082 19.763" xml:space="preserve">
<g>
	<path fill="#666666" d="M21.082,17.624c0,1.182-0.658,2.138-1.472,2.139H1.471C0.657,19.762,0,18.806,0,17.625l0,0
		c0-1.181,0.657-2.137,1.471-2.138h18.14C20.424,15.488,21.082,16.444,21.082,17.624L21.082,17.624z"/>
	<path fill="#666666" d="M21.082,9.88c0,1.182-0.658,2.138-1.472,2.139H1.471C0.657,12.018,0,11.062,0,9.881l0,0
		C0,8.7,0.657,7.744,1.471,7.743h18.14C20.424,7.744,21.082,8.7,21.082,9.88L21.082,9.88z"/>
	<path fill="#666666" d="M21.082,2.136c0,1.182-0.658,2.138-1.472,2.139H1.471C0.657,4.273,0,3.317,0,2.137l0,0
		C0,0.956,0.657,0,1.471-0.001h18.14C20.424,0,21.082,0.956,21.082,2.136L21.082,2.136z"/>
</g>
</svg>
