<?xml version="1.0" encoding="utf-8"?>
<!-- Generator: Adobe Illustrator 15.0.0, SVG Export Plug-In . SVG Version: 6.00 Build 0)  -->
<!DOCTYPE svg PUBLIC "-//W3C//DTD SVG 1.1//EN" "http://www.w3.org/Graphics/SVG/1.1/DTD/svg11.dtd">
<svg version="1.1" id="Calque_1" xmlns="http://www.w3.org/2000/svg" xmlns:xlink="http://www.w3.org/1999/xlink" x="0px" y="0px"
	 width="75px" height="75px" viewBox="0 0 75 75" enable-background="new 0 0 75 75" xml:space="preserve">
<g>
	<circle fill="#E6E6E6" cx="37.5" cy="37.5" r="37.5"/>
	<circle fill="#AD1F1F" cx="37.5" cy="37.5" r="29.166"/>
	<g>
		<defs>
			<circle id="SVGID_1_" cx="37.5" cy="37.5" r="23.044"/>
		</defs>
		<clipPath id="SVGID_2_">
			<use xlink:href="#SVGID_1_"  overflow="visible"/>
		</clipPath>
		<g clip-path="url(#SVGID_2_)">
			<g>
				<polygon fill="#E6E6E6" points="7.366,8.615 7.366,79.563 69.445,79.563 69.445,19.963 58.1,8.615 				"/>
			</g>
			<g>
				<polygon fill="#E5BC35" points="46.854,34.613 37.057,47.284 27.259,34.613 27.259,30.646 46.854,30.646 				"/>
				<polygon fill="#AD1F1F" points="40.511,42.816 37.057,47.284 33.602,42.816 				"/>
				<g>
					<path fill="#8EB042" d="M30.523,32.641c1.367,0,2.569,0.75,3.277,1.891v-84.469h-6.551v84.469
						C27.957,33.391,29.159,32.641,30.523,32.641z"/>
					<path fill="#88A33E" d="M37.053,32.641c1.366,0,2.568,0.75,3.275,1.891v-84.469h-6.55v84.469
						C34.486,33.391,35.689,32.641,37.053,32.641z"/>
					<path fill="#83963B" d="M43.584,32.641c1.364,0,2.566,0.75,3.274,1.891v-84.469h-6.552v84.469
						C41.017,33.391,42.218,32.641,43.584,32.641z"/>
				</g>
			</g>
		</g>
	</g>
</g>
</svg>
