<?xml version="1.0" encoding="utf-8"?>
<!-- Generator: Adobe Illustrator 15.1.0, SVG Export Plug-In . SVG Version: 6.00 Build 0)  -->
<!DOCTYPE svg PUBLIC "-//W3C//DTD SVG 1.0//EN" "http://www.w3.org/TR/2001/REC-SVG-20010904/DTD/svg10.dtd">
<svg version="1.0" id="Calque_1" xmlns="http://www.w3.org/2000/svg" xmlns:xlink="http://www.w3.org/1999/xlink" x="0px" y="0px"
	 width="145px" height="73px" viewBox="0 0 145 73" enable-background="new 0 0 145 73" xml:space="preserve">
<g>
	<rect fill="#FFFFFF" width="73" height="73"/>
	<rect x="72" fill="#E5BC35" width="73" height="73"/>
	<g>
		<g>
			<g>
				<rect x="17.554" y="60.866" fill="#E5BC35" width="6.511" height="6.507"/>
				<rect x="48.119" y="60.866" fill="#E5BC35" width="6.511" height="6.507"/>
			</g>
			<path fill="#E5BC35" stroke="#FFFFFF" stroke-width="2.2701" stroke-miterlimit="10" d="M62.564,18.771
				c1.29-1.359,2.082-3.201,2.082-5.223c0-4.195-3.4-7.595-7.595-7.595c-2.023,0-3.861,0.794-5.223,2.082
				c-1.362-1.288-3.2-2.082-5.224-2.082s-3.862,0.794-5.223,2.082c-1.362-1.288-3.2-2.082-5.223-2.082s-3.861,0.794-5.223,2.082
				c-1.36-1.288-3.199-2.082-5.223-2.082s-3.862,0.794-5.223,2.082c-1.361-1.288-3.2-2.082-5.223-2.082
				c-4.195,0-7.595,3.4-7.595,7.595c0,1.988,0.765,3.799,2.015,5.151c-1.331,1.368-2.15,3.235-2.15,5.295
				c0,2.022,0.792,3.861,2.081,5.224c-1.29,1.361-2.081,3.197-2.081,5.224c0,2.022,0.792,3.861,2.081,5.223
				c-1.29,1.362-2.081,3.198-2.081,5.224c0,2.022,0.792,3.861,2.081,5.22c-1.29,1.362-2.081,3.201-2.081,5.224
				c0,4.198,3.4,7.595,7.595,7.595c2.092,0,3.987-0.844,5.36-2.212c1.361,1.287,3.199,2.078,5.221,2.078
				c2.023,0,3.862-0.791,5.223-2.082c1.362,1.291,3.2,2.082,5.223,2.082s3.861-0.791,5.223-2.082
				c1.361,1.291,3.199,2.082,5.223,2.082c1.988,0,3.798-0.764,5.151-2.017c1.368,1.334,3.235,2.15,5.295,2.15
				c4.194,0,7.595-3.396,7.595-7.595c0-2.022-0.792-3.861-2.082-5.224c1.29-1.358,2.082-3.197,2.082-5.22
				c0-2.025-0.792-3.861-2.082-5.224c1.29-1.361,2.082-3.2,2.082-5.223c0-2.026-0.792-3.862-2.082-5.224
				c1.29-1.362,2.082-3.201,2.082-5.224S63.854,20.133,62.564,18.771z"/>
			<path fill="#FFFFFF" d="M46.817,29.514c0,9.817-4.86,21.645-10.854,21.645c-5.993,0-10.854-11.827-10.854-21.645
				c0-9.817,4.86-9.967,10.854-9.967C41.957,19.547,46.817,19.697,46.817,29.514z"/>
			<g>
				<g>
					<circle fill="#E5BC35" cx="41.135" cy="29.043" r="1.726"/>
				</g>
				<g>
					<circle fill="#E5BC35" cx="30.793" cy="29.043" r="1.725"/>
				</g>
			</g>
			<g>
				<path fill="#FFFFFF" d="M21.925,16.178c1.217,1.475,1.009,3.656-0.463,4.875c-1.474,1.215-3.655,1.01-4.872-0.464
					c-1.217-1.474-3.176-7.994-2.544-8.515C14.676,11.55,20.708,14.704,21.925,16.178z"/>
				<path fill="#FFFFFF" d="M50.259,16.178c-1.217,1.475-1.01,3.656,0.465,4.875c1.473,1.215,3.654,1.01,4.871-0.464
					c1.216-1.474,3.176-7.994,2.544-8.515C57.508,11.55,51.476,14.704,50.259,16.178z"/>
			</g>
		</g>
	</g>
	<g>
		<g>
			<text transform="matrix(1 0 0 1 82.1406 34.1953)" fill="#FFFFFF" font-family="'BebasNeue'" font-size="23.1731">GOLDEN</text>
			
				<text transform="matrix(1 0 0 1 82.1406 55.4414)" fill="#FFFFFF" font-family="'BebasNeue'" font-size="23.1731" letter-spacing="2">SHEEP</text>
		</g>
		<rect x="83" y="11" fill="#FFFFFF" width="53" height="3"/>
		<rect x="83" y="59" fill="#FFFFFF" width="53" height="3"/>
	</g>
</g>
</svg>
