<?xml version="1.0" encoding="utf-8"?>
<!-- Generator: Adobe Illustrator 15.1.0, SVG Export Plug-In . SVG Version: 6.00 Build 0)  -->
<!DOCTYPE svg PUBLIC "-//W3C//DTD SVG 1.1//EN" "http://www.w3.org/Graphics/SVG/1.1/DTD/svg11.dtd">
<svg version="1.1" id="Calque_1" xmlns="http://www.w3.org/2000/svg" xmlns:xlink="http://www.w3.org/1999/xlink" x="0px" y="0px"
	 width="145px" height="73px" viewBox="0 0 145 73" enable-background="new 0 0 145 73" xml:space="preserve">
<g>
	<g>
		<rect fill="#FFFFFF" width="73" height="73"/>
		<g>
			<g>
				<g>
					<rect x="17.554" y="60.866" fill="#E5BC35" width="6.511" height="6.507"/>
					<rect x="48.119" y="60.866" fill="#E5BC35" width="6.511" height="6.507"/>
				</g>
				<path fill="#E5BC35" stroke="#FFFFFF" stroke-width="2.2701" stroke-miterlimit="10" d="M62.564,18.771
					c1.29-1.359,2.082-3.201,2.082-5.223c0-4.195-3.4-7.595-7.595-7.595c-2.023,0-3.861,0.794-5.223,2.082
					c-1.362-1.288-3.2-2.082-5.224-2.082s-3.862,0.794-5.223,2.082c-1.362-1.288-3.2-2.082-5.223-2.082
					c-2.023,0-3.861,0.794-5.223,2.082c-1.36-1.288-3.199-2.082-5.223-2.082s-3.862,0.794-5.223,2.082
					c-1.361-1.288-3.2-2.082-5.223-2.082c-4.195,0-7.595,3.4-7.595,7.595c0,1.988,0.765,3.799,2.015,5.151
					c-1.331,1.368-2.15,3.235-2.15,5.295c0,2.022,0.792,3.861,2.081,5.224c-1.29,1.361-2.081,3.197-2.081,5.224
					c0,2.022,0.792,3.861,2.081,5.223c-1.29,1.362-2.081,3.198-2.081,5.224c0,2.022,0.792,3.861,2.081,5.221
					c-1.29,1.361-2.081,3.201-2.081,5.224c0,4.198,3.4,7.595,7.595,7.595c2.092,0,3.987-0.844,5.36-2.212
					c1.361,1.287,3.199,2.078,5.221,2.078c2.023,0,3.862-0.791,5.223-2.082c1.362,1.291,3.2,2.082,5.223,2.082
					c2.023,0,3.861-0.791,5.223-2.082c1.361,1.291,3.199,2.082,5.223,2.082c1.988,0,3.798-0.764,5.151-2.017
					c1.368,1.334,3.235,2.149,5.295,2.149c4.194,0,7.595-3.396,7.595-7.595c0-2.021-0.792-3.861-2.082-5.225
					c1.29-1.357,2.082-3.196,2.082-5.219c0-2.025-0.792-3.861-2.082-5.225c1.29-1.361,2.082-3.2,2.082-5.223
					c0-2.026-0.792-3.862-2.082-5.224c1.29-1.362,2.082-3.201,2.082-5.224S63.854,20.133,62.564,18.771z"/>
				<path fill="#FFFFFF" d="M46.817,29.514c0,9.817-4.86,21.645-10.854,21.645c-5.993,0-10.854-11.827-10.854-21.645
					c0-9.817,4.86-9.967,10.854-9.967S46.817,19.697,46.817,29.514z"/>
				<g>
					<g>
						<circle fill="#E5BC35" cx="41.135" cy="29.043" r="1.726"/>
					</g>
					<g>
						<circle fill="#E5BC35" cx="30.793" cy="29.043" r="1.725"/>
					</g>
				</g>
				<g>
					<path fill="#FFFFFF" d="M21.925,16.178c1.217,1.475,1.009,3.656-0.463,4.875c-1.474,1.215-3.655,1.01-4.872-0.464
						c-1.217-1.474-3.176-7.994-2.544-8.515C14.676,11.55,20.708,14.704,21.925,16.178z"/>
					<path fill="#FFFFFF" d="M50.259,16.178c-1.217,1.475-1.01,3.656,0.465,4.875c1.473,1.215,3.654,1.01,4.871-0.464
						c1.216-1.474,3.176-7.994,2.544-8.515C57.508,11.55,51.476,14.704,50.259,16.178z"/>
				</g>
			</g>
		</g>
	</g>
	<g>
		<rect x="72" fill="#E5BC35" width="73" height="73"/>
		<g>
			<g>
				<g enable-background="new    ">
					<path fill="#FFFFFF" d="M86.893,25.156h3.568v5.146c0,2.596-1.297,4.079-3.801,4.079c-2.503,0-3.801-1.483-3.801-4.079v-8.438
						c0-2.596,1.298-4.079,3.801-4.079c2.504,0,3.801,1.483,3.801,4.079v1.576h-2.41v-1.738c0-1.159-0.51-1.599-1.32-1.599
						c-0.812,0-1.322,0.439-1.322,1.599v8.762c0,1.158,0.51,1.576,1.322,1.576c0.811,0,1.32-0.418,1.32-1.576v-2.99h-1.158V25.156z"
						/>
					<path fill="#FFFFFF" d="M91.896,21.864c0-2.596,1.367-4.079,3.871-4.079c2.503,0,3.871,1.483,3.871,4.079v8.438
						c0,2.596-1.368,4.079-3.871,4.079c-2.504,0-3.871-1.483-3.871-4.079V21.864z M94.446,30.464c0,1.158,0.51,1.599,1.321,1.599
						c0.811,0,1.321-0.44,1.321-1.599v-8.762c0-1.159-0.511-1.599-1.321-1.599c-0.812,0-1.321,0.439-1.321,1.599V30.464z"/>
					<path fill="#FFFFFF" d="M101.281,17.971h2.55v13.907h4.195v2.317h-6.745V17.971z"/>
					<path fill="#FFFFFF" d="M109.137,17.971h4.033c2.55,0,3.801,1.414,3.801,4.01v8.205c0,2.596-1.251,4.01-3.801,4.01h-4.033
						V17.971z M111.687,20.288v11.59h1.437c0.812,0,1.299-0.418,1.299-1.576v-8.438c0-1.158-0.486-1.576-1.299-1.576H111.687z"/>
					<path fill="#FFFFFF" d="M121.141,24.809h3.5v2.317h-3.5v4.752h4.404v2.317h-6.953V17.971h6.953v2.317h-4.404V24.809z"/>
					<path fill="#FFFFFF" d="M129.391,22.444v11.751h-2.295V17.971h3.199l2.619,9.712v-9.712h2.271v16.225h-2.619L129.391,22.444z"
						/>
				</g>
				<g enable-background="new    ">
					<path fill="#FFFFFF" d="M86.498,39.031c2.48,0,3.755,1.483,3.755,4.079v0.51h-2.411v-0.672c0-1.159-0.463-1.599-1.273-1.599
						c-0.812,0-1.275,0.439-1.275,1.599c0,3.338,4.983,3.964,4.983,8.6c0,2.596-1.298,4.079-3.802,4.079
						c-2.503,0-3.801-1.483-3.801-4.079v-0.997h2.41v1.159c0,1.158,0.51,1.576,1.321,1.576s1.321-0.418,1.321-1.576
						c0-3.338-4.983-3.964-4.983-8.6C82.743,40.515,84.018,39.031,86.498,39.031z"/>
					<path fill="#FFFFFF" d="M96.277,55.441h-2.55V39.217h2.55v6.953h2.896v-6.953h2.596v16.225h-2.596v-6.953h-2.896V55.441z"/>
					<path fill="#FFFFFF" d="M108.164,46.055h3.5v2.317h-3.5v4.752h4.404v2.317h-6.953V39.217h6.953v2.317h-4.404V46.055z"/>
					<path fill="#FFFFFF" d="M118.685,46.055h3.5v2.317h-3.5v4.752h4.403v2.317h-6.953V39.217h6.953v2.317h-4.403V46.055z"/>
					<path fill="#FFFFFF" d="M134.212,43.227v2.109c0,2.596-1.252,4.01-3.802,4.01h-1.205v6.096h-2.549V39.217h3.754
						C132.96,39.217,134.212,40.631,134.212,43.227z M129.205,41.534v5.493h1.205c0.812,0,1.252-0.37,1.252-1.529v-2.434
						c0-1.159-0.44-1.53-1.252-1.53H129.205z"/>
				</g>
			</g>
			<rect x="83" y="11" fill="#FFFFFF" width="53" height="3"/>
			<rect x="83" y="59" fill="#FFFFFF" width="53" height="3"/>
		</g>
	</g>
</g>
</svg>
