<?xml version="1.0" encoding="utf-8"?>
<!-- Generator: Adobe Illustrator 15.0.0, SVG Export Plug-In . SVG Version: 6.00 Build 0)  -->
<!DOCTYPE svg PUBLIC "-//W3C//DTD SVG 1.1//EN" "http://www.w3.org/Graphics/SVG/1.1/DTD/svg11.dtd">
<svg version="1.1" id="Calque_1" xmlns="http://www.w3.org/2000/svg" xmlns:xlink="http://www.w3.org/1999/xlink" x="0px" y="0px"
	 width="75px" height="75px" viewBox="0 0 75 75" enable-background="new 0 0 75 75" xml:space="preserve">
<g>
	<path fill="#E6E6E6" d="M75,37.501C75,58.208,58.206,75,37.5,75C16.793,75,0,58.208,0,37.501C0,16.791,16.793,0,37.5,0
		C58.206,0,75,16.791,75,37.501z"/>
	<path fill="#AD1F1F" d="M66.672,37.501c0,16.104-13.064,29.171-29.172,29.171S8.331,53.605,8.331,37.501
		c0-16.106,13.062-29.17,29.169-29.17S66.672,21.395,66.672,37.501z"/>
	<g>
		<defs>
			<path id="SVGID_1_" d="M60.544,37.501c0,12.723-10.321,23.037-23.044,23.037c-12.723,0-23.042-10.314-23.042-23.037
				S24.777,14.46,37.5,14.46C50.223,14.46,60.544,24.778,60.544,37.501z"/>
		</defs>
		<clipPath id="SVGID_2_">
			<use xlink:href="#SVGID_1_"  overflow="visible"/>
		</clipPath>
		<rect x="-2.012" y="-10.141" clip-path="url(#SVGID_2_)" fill="#91D3E1" width="85.136" height="87.817"/>
		<path clip-path="url(#SVGID_2_)" fill="#FFFFFF" d="M48.023,45.709c0,5.521-4.481,10.012-10.016,10.012
			c-5.531,0-10.011-4.49-10.011-10.012l0.789-14.908c0-5.524,3.69-10.011,9.222-10.011c5.534,0,9.43,5.072,9.43,10.597
			L48.023,45.709z"/>
		
			<line clip-path="url(#SVGID_2_)" fill="none" stroke="#FFFFFF" stroke-width="1.0016" stroke-miterlimit="10" x1="38.008" y1="22.3" x2="38.008" y2="13.027"/>
		<path clip-path="url(#SVGID_2_)" fill="#808080" d="M36.536,31.006c0.425,0.265,0.932,0.433,1.472,0.433
			c0.547,0,1.051-0.168,1.475-0.433v-4.649c-0.424-0.265-0.928-0.43-1.475-0.43c-0.54,0-1.047,0.165-1.472,0.43V31.006z"/>
	</g>
	<path fill="#F2F2F2" d="M46.927,27.999c-3.983,8.895-10.069,16.64-17.646,22.619c1.722,3.042,4.98,5.103,8.728,5.103
		c5.534,0,10.016-4.49,10.016-10.012l-0.586-14.322C47.438,30.215,47.262,29.078,46.927,27.999z"/>
</g>
</svg>
