<?xml version="1.0" encoding="utf-8"?>
<!-- Generator: Adobe Illustrator 15.0.0, SVG Export Plug-In . SVG Version: 6.00 Build 0)  -->
<!DOCTYPE svg PUBLIC "-//W3C//DTD SVG 1.1//EN" "http://www.w3.org/Graphics/SVG/1.1/DTD/svg11.dtd">
<svg version="1.1" id="Calque_1" xmlns="http://www.w3.org/2000/svg" xmlns:xlink="http://www.w3.org/1999/xlink" x="0px" y="0px"
	 width="75px" height="75px" viewBox="0 0 75 75" enable-background="new 0 0 75 75" xml:space="preserve">
<g>
	<circle fill="#E6E6E6" cx="37.5" cy="37.501" r="37.5"/>
	<circle fill="#AD1F1F" cx="37.5" cy="37.501" r="29.166"/>
	<g>
		<defs>
			<circle id="SVGID_1_" cx="37.5" cy="37.501" r="23.045"/>
		</defs>
		<clipPath id="SVGID_2_">
			<use xlink:href="#SVGID_1_"  overflow="visible"/>
		</clipPath>
		<g clip-path="url(#SVGID_2_)">
			<polygon fill="#8EB042" points="75.065,73.044 3.122,73.044 3.122,37.377 75.065,21.632 			"/>
			<polygon fill="#E6E6E6" stroke="#E5BC35" stroke-width="3.6686" stroke-miterlimit="10" points="77.445,37.152 59.485,40.769 
				49.423,39.8 40.607,45.202 25.883,40.208 19.769,43.367 -1.77,52.561 -1.77,-5.781 83.777,-5.781 			"/>
			<rect x="25.679" y="-10.742" opacity="0.05" width="23.438" height="93.548"/>
			<path fill="#751A1A" d="M38.11,22.449c-4.267,0-7.727,3.461-7.727,7.727c0,4.268,7.727,14.835,7.727,14.835
				s7.729-10.567,7.729-14.835C45.839,25.91,42.379,22.449,38.11,22.449z M38.11,33.729c-2.317,0-4.196-1.878-4.196-4.197
				s1.879-4.197,4.196-4.197c2.318,0,4.199,1.878,4.199,4.197S40.429,33.729,38.11,33.729z"/>
			<path fill="#AD1F1F" d="M37.499,21.328c-4.266,0-7.727,3.46-7.727,7.726c0,4.269,7.727,14.836,7.727,14.836
				s7.728-10.567,7.728-14.836C45.227,24.788,41.768,21.328,37.499,21.328z M37.499,32.608c-2.317,0-4.196-1.878-4.196-4.197
				s1.879-4.197,4.196-4.197c2.318,0,4.198,1.878,4.198,4.197S39.817,32.608,37.499,32.608z"/>
		</g>
	</g>
</g>
</svg>
