<?xml version="1.0" encoding="utf-8"?>
<!-- Generator: Adobe Illustrator 15.0.0, SVG Export Plug-In . SVG Version: 6.00 Build 0)  -->
<!DOCTYPE svg PUBLIC "-//W3C//DTD SVG 1.1//EN" "http://www.w3.org/Graphics/SVG/1.1/DTD/svg11.dtd">
<svg version="1.1" id="Calque_1" xmlns="http://www.w3.org/2000/svg" xmlns:xlink="http://www.w3.org/1999/xlink" x="0px" y="0px"
	 width="75px" height="75px" viewBox="0 0 75 75" enable-background="new 0 0 75 75" xml:space="preserve">
<g>
	<circle fill="#E6E6E6" cx="37.5" cy="37.501" r="37.5"/>
	<circle fill="#AD1F1F" cx="37.5" cy="37.501" r="29.166"/>
	<g>
		<defs>
			<circle id="SVGID_1_" cx="37.5" cy="37.501" r="23.045"/>
		</defs>
		<clipPath id="SVGID_2_">
			<use xlink:href="#SVGID_1_"  overflow="visible"/>
		</clipPath>
		<g clip-path="url(#SVGID_2_)">
			<g>
				<path fill="#91D3E1" d="M66.718,54.713c0,6.063-4.912,10.979-10.978,10.979H19.671c-6.063,0-10.979-4.917-10.979-10.979v-36.07
					c0-6.066,4.915-10.98,10.979-10.98H55.74c6.065,0,10.978,4.914,10.978,10.98V54.713z"/>
				<g>
					<path fill="#719C42" d="M35.224,74.541c-4.161,0-6.29-3.156-4.73-7.014l10.301-25.481c1.56-3.857,4.384-3.981,6.276-0.276
						l13.293,26.033c1.893,3.706,0.036,6.738-4.125,6.738H35.224z"/>
				</g>
				<g>
					<path fill="#8EB042" d="M17.527,64.665c-4.161,0-6.29-3.156-4.73-7.014l10.301-25.48c1.56-3.857,4.383-3.981,6.276-0.276
						l13.293,26.033c1.893,3.705,0.036,6.737-4.125,6.737H17.527z"/>
				</g>
			</g>
			<circle fill="#E5BC35" cx="45.525" cy="25.257" r="3.704"/>
		</g>
	</g>
</g>
</svg>
