<?xml version="1.0" encoding="utf-8"?>
<!-- Generator: Adobe Illustrator 15.1.0, SVG Export Plug-In . SVG Version: 6.00 Build 0)  -->
<!DOCTYPE svg PUBLIC "-//W3C//DTD SVG 1.0//EN" "http://www.w3.org/TR/2001/REC-SVG-20010904/DTD/svg10.dtd">
<svg version="1.0" id="Calque_1" xmlns="http://www.w3.org/2000/svg" xmlns:xlink="http://www.w3.org/1999/xlink" x="0px" y="0px"
	 width="52px" height="52px" viewBox="0 0 52 52" enable-background="new 0 0 52 52" xml:space="preserve">
<g>
	<g>
		<g>
			<rect fill="#00B6E0" width="52" height="52"/>
		</g>
	</g>
	<g>
		<path fill="#FFFFFF" d="M11.533,14.31c0-4.118,3.34-7.468,7.469-7.468c4.116,0,7.466,3.35,7.466,7.468v0.79h8.082
			c4.119,0,7.469,3.351,7.469,7.468c0,3.886-2.967,7.149-6.745,7.522l0.011,0.055c3.779,0.385,6.734,3.669,6.734,7.546
			c0,4.119-3.351,7.467-7.469,7.467h-11.42c-6.93,0-11.595-5.36-11.595-12.231L11.533,14.31L11.533,14.31z"/>
		<path fill="#00B6E0" d="M19.006,10.136c2.295,0,4.173,1.878,4.173,4.174v4.086h11.377c2.293,0,4.173,1.878,4.173,4.172
			c0,2.306-1.88,4.173-4.173,4.173H23.179v6.019c0,0.482,0.142,0.757,0.593,0.757h10.785c2.293,0,4.173,1.866,4.173,4.175
			c0,2.295-1.88,4.173-4.173,4.173H24.234c-0.111,0-0.208-0.011-0.306-0.011c-6.13-0.165-9.106-4.044-9.106-9.358
			c0.013-0.056,0.013-0.109,0.013-0.176V14.31C14.834,12.013,16.701,10.136,19.006,10.136L19.006,10.136z"/>
	</g>
</g>
</svg>
